<svg id="Layer_1" data-name="Layer 1" xmlns="http://www.w3.org/2000/svg" viewBox="0 0 689.749 567.987">
  <path d="M642.164,549.486c27.107,0,48.735-24.67,47.537-54.218-1.565-38.635-19.671-93.187-91.038-147.7-87.03-66.482-47.777-257.9-232.692-244.689S198.687,257.541,85.3,322.377C13.127,363.648.005,444.4,0,497.648c0,28.643,21.331,51.838,47.583,51.838Z" fill="#f3f5fd"></path>
  <g>
    <g>
      <path d="M97,495.712c-7.774-2.232-13.626-9.187-15.951-16.933s-1.505-16.151.766-23.913c1.853-6.334,4.661-12.457,5.353-19.02,2.3-21.855-18.893-44.184-8.917-63.766,3.225-6.332,9.467-11.281,10.582-18.3.921-5.805-1.939-11.445-3.36-17.148-1.957-7.848-.965-16.753,4.127-23.038s14.713-9.03,21.729-5.005c9.176,5.263,9.972,18.259,7.613,28.571s-6.729,20.922-3.847,31.1c2.746,9.7,11.684,17.007,13.287,26.962,1.332,8.276-2.708,16.345-4.483,24.537-2.789,12.875.05,26.222.172,39.395S120.477,487.1,97,495.712Z" fill="#8ddbe0"></path>
      <path d="M85.006,496.963a27.346,27.346,0,0,1-18.494-20.512c-1.522-7.839.346-16.644-3.944-23.378-5.814-9.126-11.775-10.157-19.013-18.2-11.128-12.368-11.519-17.845-10.785-40.751.31-9.687-13.065-20.618-8.354-29.925,4.15-8.2,16.765-8.241,23.919-2.472s10.3,15.019,13.413,23.665S68.8,403.183,76.7,407.876c4.739,2.814,10.943,4.115,13.56,8.965,2.1,3.9,1.044,8.654.2,13-2.125,10.927-1.592,24.257,7.578,30.568,4.138,2.847,9.556,3.828,12.957,7.524,3.363,3.654,3.905,9.067,3.678,14.028a62.445,62.445,0,0,1-7.682,27.208" fill="#dee8f5"></path>
      <path d="M96.065,504.573a30.18,30.18,0,0,1-2.732-34.979c5.614-8.895,16.076-15.022,18.273-25.308,1.957-9.162-3.47-18.629-1.845-27.856,1.766-10.033,11.035-16.617,18.4-23.658a25.666,25.666,0,0,0,4.889-5.9c3.238-5.828,2.335-12.977,3.434-19.553,2.106-12.594,12.481-23.764,25.079-25.846,11.048-1.826,18.963,4.521,18.963,16.21,0,13.847-10.374,19.781-15.666,26.05a48.693,48.693,0,0,0-11.347,32.445c.373,13.219,6,27.294-.012,39.072-4.413,8.644-13.839,13.252-21.245,19.524a54,54,0,0,0-18.808,38.5" fill="#fff"></path>
    </g>
    <rect x="65.074" y="482.862" width="66.624" height="66.624" fill="#0cbc8b"></rect>
    <g opacity="0.42">
      <rect x="65.074" y="495.853" width="66.624" height="13.005" fill="#fff"></rect>
    </g>
  </g>
  <rect x="170.154" width="349.44" height="453.309" fill="#dee8f5"></rect>
  <g>
    <g>
      <rect x="425.624" y="131.667" width="66.06" height="24.588" fill="#fff"></rect>
      <rect x="425.624" y="172.352" width="66.06" height="24.588" fill="#fff"></rect>
      <rect x="425.624" y="213.037" width="66.06" height="24.588" fill="#fff"></rect>
      <rect x="425.624" y="253.721" width="66.06" height="24.588" fill="#fff"></rect>
      <rect x="425.624" y="294.406" width="66.06" height="24.588" fill="#fff"></rect>
      <rect x="425.624" y="335.091" width="66.06" height="24.588" fill="#fff"></rect>
    </g>
    <g>
      <rect x="198.065" y="131.667" width="214.206" height="24.588" fill="#fff"></rect>
      <rect x="198.065" y="172.352" width="214.206" height="24.588" fill="#fff"></rect>
      <rect x="198.065" y="213.037" width="214.206" height="24.588" fill="#fff"></rect>
      <rect x="198.065" y="253.721" width="214.206" height="24.588" fill="#fff"></rect>
      <rect x="198.065" y="294.406" width="214.206" height="24.588" fill="#fff"></rect>
      <rect x="198.065" y="335.091" width="214.206" height="24.588" fill="#fff"></rect>
    </g>
  </g>
  <g>
    <g>
      <g>
        <path d="M524.381,543.363c-1.9-.318-23.335-3.979-23.335-3.979l3.535-20.7s21.377,3.652,23.271,3.969Z" fill="#E98862"></path>
        <path d="M488.818,563.22a4.107,4.107,0,0,0,3.693,4.751h0a4.109,4.109,0,0,0,3.92-2.039l12.111-22.754a3.464,3.464,0,0,0,.16-2.886,19.1,19.1,0,0,1-1.46-11.872,17.021,17.021,0,0,1,4.635-8.167,1.546,1.546,0,0,0-.768-2.691l-11.788-1.975a2.678,2.678,0,0,0-3.085,2.21Z" fill="#c1d8ed"></path>
      </g>
      <path d="M590.737,487.376c8.895.37,17.955.63,27.015.854l13.616.3,13.6.244,1.355.025a22.2,22.2,0,0,1,2.277,44.232L514.2,549.352l-5.476-39.72,133.8-20.655,3.632,44.256-13.809.892-13.8.835c-9.215.532-18.433,1.031-27.817,1.416Z" fill="#262626"></path>
      <g>
        <path d="M624.641,534.665c-18.554-2.7-20.4-3.195-21.012-3.359l5.453-20.279c-.061-.016-.14-.038-.237-.059,1.52.332,10.951,1.772,18.817,2.916Z" fill="#E98862"></path>
        <path d="M647.818,552.716a4.107,4.107,0,0,1-2.724,5.366h0a4.105,4.105,0,0,1-4.235-1.258l-16.211-20.042a3.46,3.46,0,0,1-.7-2.8,19.109,19.109,0,0,0-.82-11.933,17.028,17.028,0,0,0-6.1-7.139,1.547,1.547,0,0,1,.243-2.788l11.2-4.176a2.678,2.678,0,0,1,3.448,1.584Z" fill="#c1d8ed"></path>
      </g>
      <path d="M560.9,532.776c-5.632-.479-11.261-.826-16.89-1.15-5.629-.3-11.257-.6-16.883-.8l-8.44-.326-8.439-.243c-5.626-.187-11.25-.264-16.874-.372l1.949-40.409c10.529,1.473,21.072,2.825,31.612,4.212s21.091,2.662,31.64,3.959l15.834,1.867,15.844,1.775c10.569,1.137,21.138,2.265,31.731,3.194l-4.649,39.831c-10.521-1.534-21.066-2.871-31.612-4.2l-15.828-1.921-15.838-1.829c-10.565-1.167-21.128-2.352-31.7-3.433s-21.147-2.189-31.732-3.18a20.231,20.231,0,0,1,.7-40.339l1.252-.071c5.616-.329,11.233-.628,16.847-1.038l8.422-.576,8.421-.659c5.614-.423,11.226-.948,16.838-1.468,5.612-.546,11.223-1.115,16.832-1.816Z" fill="#262626"></path>
      <polygon points="611.172 481.241 614.132 530.946 528.642 529.942 535.095 485.937 611.172 481.241" fill="#262626"></polygon>
      <path d="M639.71,470l-22.656-70.244a20.061,20.061,0,0,0-5.628-9.575c-4.57-4.57-12.46-7.52-22.08-7.53-.72,5.61-34.78,5.63-35.04.13-1.3.02-2.31.04-2.94.07-13.76.593-19.3,5.89-21.058,13.862l-28.884,69.892a10.5,10.5,0,0,0,11.186,14.4l15.78-2.249c-.777,3.931-.9,6.987.636,10.52,4.19,9.63,86.52,13.63,87.62-3.31.011-.166.012-.331.018-.5l13.68-1.273A10.9,10.9,0,0,0,639.71,470ZM527.858,457.628l5.221-12.634c-.058,4.519-.3,8.484-.647,11.982Zm86.927,6.126-3.993.371a64.112,64.112,0,0,1-2.946-19.351c0-.765.033-1.524.081-2.28Z" fill="#367CFF"></path>
      <g>
        <g>
          <path d="M582.732,416.263l3.534,52.679a4.544,4.544,0,0,1-4.534,4.848H508.155a4.544,4.544,0,0,1-4.521-4.077l-5.445-52.679a4.545,4.545,0,0,1,4.521-5.012H578.2A4.544,4.544,0,0,1,582.732,416.263Z" fill="#9ebcea"></path>
          <rect x="511.129" y="467.446" width="83.65" height="6.344" rx="3.172" transform="translate(1105.907 941.237) rotate(180)" fill="#9ebcea"></rect>
        </g>
        <circle cx="540.279" cy="442.906" r="7" fill="#fff"></circle>
      </g>
      <path d="M550.364,480.481c4.49,2.77,11.44,4.08,17.5,4.56L568.2,474c-2.85-.08-7.23-.381-11.52-.21-1.938-1.581-3.054-2.051-5.044-4.04-2.118-2.118-7.676-3.39-8.726,0S546.424,478.041,550.364,480.481Z" fill="#E98862"></path>
      <path d="M554.306,382.784c.26,5.5,3.25,13.59,12.48,14.2,12.3.81,21.84-8.72,22.56-14.33h-.03C577.206,382.654,561.366,382.674,554.306,382.784Z" fill="#E98862"></path>
    </g>
    <g>
      <path d="M586.64,388.661s-7.732-4.1-6.006-25.157l-15.976-2.962s1.795,18.878-6.287,24.872Z" fill="#E98862"></path>
      <g opacity="0.15">
        <path d="M561.644,381.467l13.273-10.153-10.425-.108A28.736,28.736,0,0,1,561.644,381.467Z"></path>
      </g>
      <path d="M589.7,355.339c-1.106,6.389-4.592,12.438-10.227,14.5a40.491,40.491,0,0,1-19.358,2.615c-17.49-1.434-14.03-41.2-5.726-48.926s32.673-2.833,35.637,10.087C591.558,340.3,590.752,349.259,589.7,355.339Z" fill="#E98862"></path>
      <path d="M548.619,324.9a5.567,5.567,0,0,1,2.12-1.96c7.766-4.223,22.16-5.684,29.073-3.616,8.019,2.4,18.076,9.123,15.5,25.425-.109.687-.226,1.348-.348,2a14,14,0,1,1-9.9,20.562,24.7,24.7,0,0,1-3.838,2.724c-.957.568-1.189.1-1.52-.957-1.16-3.711-2.3-18.388-1.39-29.046l-18.847-.651-3.283-9.343-2.692,9.343h-6.418C546.215,334.319,545.327,328.58,548.619,324.9Z" fill="#0f1011"></path>
      <g>
        <circle cx="564.681" cy="348.969" r="1.449" fill="#0f1011"></circle>
        <circle cx="553.249" cy="348.032" r="1.449" fill="#0f1011"></circle>
        <path d="M550.738,344.944a.681.681,0,0,1-.009-1.361l3.839-.048h.009a.681.681,0,0,1,.009,1.361l-3.839.048Z" fill="#0f1011"></path>
        <path d="M567.808,346.343a.741.741,0,0,1-.16-.018l-3.784-.91a.681.681,0,0,1,.318-1.325l3.785.911a.68.68,0,0,1-.159,1.342Z" fill="#0f1011"></path>
      </g>
      <path d="M572.218,352.515a6.143,6.143,0,0,0,12.245,1,6.041,6.041,0,0,0-5.621-6.624C574.464,346.752,572.5,349.134,572.218,352.515Z" fill="#E98862"></path>
      <g opacity="0.15">
        <path d="M558.248,357.006a.479.479,0,0,1-.147-.023l-3.488-1.071a.5.5,0,0,1-.308-.271.506.506,0,0,1,0-.412l2.294-5.106a.5.5,0,0,1,.912.41l-2.062,4.59,2.947.905a.5.5,0,0,1-.147.978Z"></path>
      </g>
      <path d="M564.01,360.381s-5.348.564-9.1-.746c0,0,.029,3.523,4.262,3.87S564.01,360.381,564.01,360.381Z" fill="#fff"></path>
    </g>
  </g>
  <g>
    <rect x="425.624" y="93.631" width="66.06" height="25.6" fill="#c1d8ed"></rect>
    <rect x="198.065" y="93.631" width="214.206" height="25.6" fill="#c1d8ed"></rect>
  </g>
  <rect x="378.205" y="385.352" width="113.478" height="26.67" fill="#c1d8ed"></rect>
  <g>
    <path d="M253.932,66.792V34.08h6.937V66.792Z" fill="#fff"></path>
    <path d="M298.123,66.792h-8.816l-14.23-24.747h-.2q.425,6.556.425,9.353V66.792h-6.2V34.08h8.749l14.208,24.5h.157q-.336-6.376-.336-9.017V34.08h6.243Z" fill="#fff"></path>
    <path d="M325.017,34.08h7L320.9,66.792h-7.562L302.24,34.08h7L315.4,53.546q.514,1.722,1.063,4.016t.682,3.189a57.579,57.579,0,0,1,1.678-7.2Z" fill="#fff"></path>
    <path d="M365.828,50.391q0,8.122-4.027,12.485t-11.545,4.363q-7.519,0-11.546-4.363t-4.028-12.53q0-8.166,4.04-12.473T350.3,33.565q7.541,0,11.534,4.341T365.828,50.391Zm-23.874,0q0,5.483,2.081,8.256a7.282,7.282,0,0,0,6.221,2.774q8.3,0,8.3-11.03,0-11.052-8.256-11.053a7.332,7.332,0,0,0-6.243,2.786Q341.954,44.91,341.954,50.391Z" fill="#fff"></path>
    <path d="M372.607,66.792V34.08h6.937V66.792Z" fill="#fff"></path>
    <path d="M401.673,39.383a7.068,7.068,0,0,0-6.064,2.942q-2.148,2.943-2.148,8.2,0,10.941,8.212,10.941a25.967,25.967,0,0,0,8.345-1.722v5.817a23.172,23.172,0,0,1-8.995,1.678q-7.139,0-10.919-4.329t-3.781-12.429a20.284,20.284,0,0,1,1.858-8.939,13.425,13.425,0,0,1,5.335-5.885,15.8,15.8,0,0,1,8.157-2.047,22.009,22.009,0,0,1,9.576,2.3l-2.237,5.638a36.942,36.942,0,0,0-3.693-1.521A11,11,0,0,0,401.673,39.383Z" fill="#fff"></path>
    <path d="M435.816,66.792h-18.84V34.08h18.84v5.683h-11.9v7.182h11.075v5.683H423.913v8.436h11.9Z" fill="#fff"></path>
  </g>
</svg>